<?xml version="1.0" encoding="UTF-8"?>
<svg id="Layer_1" xmlns="http://www.w3.org/2000/svg" version="1.1" viewBox="0 0 179.09 187.15">
  <!-- Generator: Adobe Illustrator 30.2.1, SVG Export Plug-In . SVG Version: 2.1.1 Build 1)  -->
  <path d="M157.67,62.69l-.18.91s.18-.17.37-.33c.78,1.94.23,1.87.16,3.75l.61-.05c.09,0,0,.3-.03.42-.6-.1-.49-.04-.12.09l.42.43c.12.12.56-.16.8-.28l.33.71.23-.66c.16.51.21.91.23,1.52l-.6-.32c0,1.02-.09,3.46.02,4.18.4,2.63-.4,1.59-.07,2.43.03.08.23.14.28.07l.31-.4.29.85.46-.23c-.23.4-.43.73-.56,1.01-.11.24.25.76.36,1.05-.17.45-.61,3.04-.37,2.96l-.46.15c.26.17.43.27.49.41.09.21-.13.36-.5.57l.65.16c.06.57.04,1.22-.08,1.95l.39.16c-1.33,3.6-1.03.49-.65,4.5.43,0,.83.04.93.22.17.29.14.75-.02.93l-.59-.51-.73,1.19s.43.04.41.12l-.12.41-.18.65c-.04.14-.41.12-.73.18l.61.24-.77.13.33.29c.09.08-.16.32-.27.38l-.28.16c-.07.04.19.42.22.34s.15-.35.23-.35c.26.03.08.7-.12.85.14.21.26.39.12.18l-.55.21c-.21.08.5.42.62.82.05.15-.1.5-.16.66-.51-.27-.54-.23-.27.17l.49.18c.15.05-.16.56-.28.69l-.26,1.96.86.2-.66.53c-.17.14.66,1.26.87,1.42l.62-.68-.13,1.04-.99-.34.78.85c-.37.82-.04,1.61.43,2.15l-.06,1.09c-.11,1.83.07,1.43-.6,2.22-.79,1.72-.57,1.48-1.05,3.67-.05.23.46.42.92.53-.6.66-.97,1.31-.77,2.24.66,3.12-.68,1.84,0,3.24.15.31.15.64.13.91-.02.41-.86.55-.94.82l-.44,1.47c-.08.26-.17.58-.2.75s.48.34.57.48c.38.84-.41,1.66-.78,2.36-.3.56-.44.98-.99,1.22l.24.17s.24.13.19.15l-.56.24s.19.13.4.27l-.43.26c-.12.07-.02.47-.07.62-2.09,1.25-.64.42-2.39,4.05l-.88,1.82-.9,1.97c-.83,1.8-.87.47-2.44,2.58l-1.71,2.3c-.37.49-.86,1.43-1.09,1.95.23,2.41-3.78,3.4-3.16,3.84l.54.38.2,1.14c-.25.33-.72,1.04-1.06,1.34l-2.11,1.9c-.58.34-2.04-.06-2.49-.54-.32-1.06-1.88-1.65-3.15-.82-2.8,1.84-.52,0-2.54,1.39-.39.27-1,.64-1.39.87-.59-.41-1.16-.43-1.66.04l-.91-.57c-1.15,1.1-2.04-1-2.94.69l-.14.26c-.03.06-.17-.09-.33-.22-.55,1.24-.75.27-2.35,1.79-.1.09-.41.34-.34.45l.31.47c-.33.22-.58.46-.81.82l-.31-.51c-.08-.13-.57.25-.55.4s.07.34.15.64-.47.75-.8.96l-1.68,1.05c-.34-.18-.87-.44-1.08-.29l-.56.4c-.12.08-.45-.25-.61-.34-.71.11-1.68.55-2.42.58-.98.04-1.72.47-2.1,1.33-.17.39-1.13.86-1.55.73l-1.97-.65-.32.53c-.09.14-.65-.04-.77-.17l-.39-.41s-1.57.12-1.62,1.07c-.15.16-.48.49-.55.67l-.38.99c-.46-.66-.82-1-1.44-1.42-.46.4-.92.9-1.32,1.41l-.98-.19c-.11-.02-.38.2-.47.14l-.58-.41-.89.54-1.03-.11c.11-.62.03-1.26-.51-1.55l.33-.69c-.48.15-.84.5-1.09.9l-.17-.39c.11-.1.35-.4.48-.64-.7-.38-1.9-.37-2.56-.35-.13,0-.36-.57-.47-.49l-.49.41c-.94.78-.44,1.68-.99,1.72-.15,0-.57.06-.59-.08l-.1-.69c-.16.34-.57.98-.76.78l-1.18-1.35c-.07-.08-.56.14-.59.25l-.11.5-.35-.36.46-.29c.09-.06-.11-.38-.19-.45s-.38-.2-.33-.28l.3-.53c-.19-.48-1.34-.82-1.67-.1l-.36-.51c-.1-.15-.52-.12-.76-.12h-.64c-.17,0-.27.48-.34.71-.21.72-1.29-.15-1.6.87-.38-.79-1.28-.89-2.03-1.06-.48-.61-1.64-1.77-2.53-1.23-.73.44-1.01,1.21-1.51,2.05-.17-.55-.38-1.16-.6-1.18-.3.3-.58.59-.8.61-.24.02-.37-.41-.5-.9l-1.21.37c-.05.45-.53.83-.84.79l-.57-1.16c-.22-.45-.16-.8,0-1.4l-1.35-.4-.51-1.1c-.12-.26-.83-.3-1.17-.34l.31-.26c.64-.54-1.84-.86-2.31-.78l-.87-1.12c-.32.04-.84.13-1.07.13-.26,0-.64-.49-.75-.74l-.51-1.16c1.07-.46,2.47.86,2.59-.15-1.03-.35-2.23-.35-2.99-1.04-1.99-1.84-.94-.43-3.5-2.07-1.81-1.16-3.2-2.58-4.87-2.96-.69-.16-.75-.26-1.16-.76-.28-.36-.64-.89-.91-1.2-1.08-1.22-2.6-2-3.92-2.88l-1.06.1-.54-1.33c-.41,0-.81,0-1.03-.09-.27-.12-.2-.82-.1-1.1.27-.69-.71-.65-1.03-.95-1.68-1.58-2.03-2.57-3.51-4.47-.5-.64-1.03-1.37-1.44-2.07l-1.33-2.29c-1.2-2.06-1.28-1.07-1.29-2.81l-.39-.06c-.49-.08.16-.7-1.08-1.25-.03-.11.07-.53-.06-.6l-.62-.36c.29-1.57-.98-.62-.41-1.85l-1.18-1.5c-.15-.19-.79-.35-.73-.55l.28-1.04c0-.43-.7-.9-1.22-1.35l1.36-1.22-.78-1.47c-.1-.18-.54-.47-.68-.61s0-.59-.06-.78l-.6-1.73-.82-.37.54-.42c.11-.09-.31-.36-.36-.49l-.37-1.06c-.2-.56-.54-.88-1.14-1.01.47-1.18,1.96-.8,1.88-1.31-.22-1.34-.08-1.68-.61-2.19,0-.33.12-.96.09-1.29l-.26-2.5-.26-1.96c-.08-.63-.4-1.32-.41-2.03,0-1.88.02-3.64.12-5.48l.24-4.66c.03-.57-.17-1.01-.35-1.59-.16-.53.6-1.39.69-1.94.37-2.34.75-4.53,1.29-6.8l.41-1.73.67-2.61-.23-.94c1.05-.47.16-.1,1.05-2.53l2.36-6.45,2.78-6.9.9-2.36c.56-1.49.8-2.39.9-3.96l.48-.46c-.08.08-.24-2.69-.09-2.74l.85-.27s-.2-.28-.29-.37c1.38-.46.47-.99,1.58-1.48.57-.25,1.27-.47,1.75-.75.86-.5,2.85-1.93,3.64-1.38l1.29-.61.44-1.31c.61-.71,1.42-1.2,2.2-1.71l1.72-1.13c.4-.79.64-1.44,1.54-1.76.43-.15,1.04-.88,1.48-1.1l1.34-.67c.8-.4.91-.76,2.12-1.67,2.64-1.99,1.15-.3,2.59-1.5l1.1-.91c1.09-.91,2.72-1.14,4.07-1.7l1.35-.57c.75-.12,1.45-.21,2.11-.58.7-.4,1.51-.37,2.21-.63,1.3-.48,2.84-1.08,4.14-1.46.18-.05.52-.38.65-.52l1.71-.21c1.93-.23,1.19-.53,3.91-.83.64-.07,1.49.23,1.83-.76.16.26.32.5.5.41.3-.15.67-.35.74-.39-.03-.38-.04-.31-.01-.36.05-.08.33-.24.35-.16l.19.67c.12-.86,1.28-1.47,1.96-1.24.21.07.5.59.69.57l.84-.12c.67-.09,1.27-.13,1.79.2.14.51.15.57,0,0l.42-.15c.07-.02.03.12,0,.27l-.21.63c-.05.14-.56-.05-.72-.03l-2.79.34c-1.31.16-2.36.78-3.58,1.03l-1.53.32-3.85,1.07c-1.58.44-3.09,1.04-4.62,1.68l-5.89,2.48c-1.77.75-3.28,1.75-4.83,2.87-.58.42-1.51.68-1.75,1.46-.08.26-.03.72-.23.83l-1.05.63c1.57.14,2.85-1.84,4.39-2.6l4.23-2.11,1.71-.62c.56-.2.85-.31,1.45-.17,2.33-.71,2.04-.95,4.48-1.57l2.62-.66c.58-.15,1.15-.31,1.72-.4l1.47-.23c1.08-.17,1.74-1.32,1.93-1.26l.88.25c-.03.3-.01.14.02-.19.82-.44,2.5,1,3.36-.88l.94,1.47.48-1.63.74,1.35c.18-.13.63-.57.85-.83l.48.64.58-.89.12.66,1.89-.76c.11-.04.31.33.22.39l-.43.28c-.34.06-.42.1.04.09l.23.62c.18-.5.35-.94.56-1.3l.18,1.52.04.38c0,.09.35.16.35.07l-.02-.41c0-.12.16-.26.41-.58.15.29.11.74-.02,1.15-.11.19-.12.25-.2.24l-.47-.07c-.12-.02-.33.31-.44.25l-.7-.4.04.43s-.71.35-.73.31l-.16-.43c-.62.52-1.53.59-2.4.72l-2.56.39c-1.33.2-2.58.45-4,.83,1.73.29,5.06-1.05,7.34-.79l-8.63,1.67c1.02.6,1.71-.52,2.72-.03l-2.33.55c.09.47.14.7.25.22l.67.28-.73.19c-.13.03-.06.36-.08.5l-.66.43c.88-.14,1.62-.26,2.43-.21-.59.38-1.06.16-1.59.34l-4.96,1.66c-.08.03-.26.21-.3.24-.06.06.28.25.36.22l2.51-.88c.5-.17,1.3.17,1.45-.68.19.16.38.3.52.28.06,0,.36-.04.37-.03,0,0,.07.12.12.21.04.08-.22.13-.34.17l-.97.29,1.14,1.27c.1-.49-.04-.64-.43-1.06l1.14-.27,2.04-.48c.27-.06.5-.36.76-.79.16-.52-.02.79.17.65l1.34-.1-.12-.84,2.64-.44c.09.58.23.9.63,1.05.18.16.37.33.25.23l-1.44.09.33.87.07-.45c.01-.1.13-.33.22-.28l.33.21.64-.15-.09,2.1c.15-.24.21-.45.29-.47l.52-.11c.4-.09.72,0,1.11.43-.33.14-.74.05-1.22-.17l-.17,1.08.29-.5.68.38c.16.09.54-.21.73-.53l.19.03.16,1.27.43-.78c.15-.34.18-.34.12.27.06.09.54.29.7.21s.41-.28.64-.47l.24.66c.12-.22.22-.51.38-.5.25,0,.59.17.69.32l.24.37c.32.5-.14-.4.89-.57.13-.02.24.28.32.47.12-.19.52-.58.67-.65l.18.8c.04.17.69.23.75.07l.3-.77c.28.28.63.59.91.58.47-.03.72-.19.86-.67l.95.6c.16-.49.27-.84.47-1.07.16-.18.77-.29.91-.1.04.06-.18.36-.23.41-.07.07.18.2.23.31l.18.35c.05.1.42.16.45.05l.22-.71.5,1.51.53-.06c.11,0,.25.26.25.31l-.45-.13c-.25-.07.2,1.07.4.89l.42-.37.2.87c-.25-.29-.37-.43-.28-.33l-.05.56c0,.09.24.06.3,0l.37-.41c-.1-.43-.09-.37,0-.03l.15.31c.05.1.16.28.21.21l.34-.49-.09.81.73.83c-.22.13.07-.04.2-.12l.55.69.39-.53c-.07-.28-.08-.32.06.22l.98.05.18.72,1.15-.45c.13.1.24.18.16.12l-.08.45c-.01.07.26.18.27.11l.08-.61.78,1.09c.19-.15.37-.42.59-.79,0-.1.31.37.26.51l-.29.84,1.27-.84.66,1c.23-.18.46-.36.62-.31.88.28.84,1.03,1.34,1.27.23.11.84,0,1.12.04.17.02.7.42.77.27l.31-.77.42.58-.49.17c-.13.04-.27.38-.18.48s.38.4.4.3l.15-.64c-.07-.04.08.04.09.05-.03.67-.04,1.03.06,1.68.27-.12.25-.32.17-.79l.26-.03-.09.57c0,.06.21.02.26,0l.23-.21v-.26c.01-.09.3-.27.32-.17s.03.35.02.45l-.08.77.53-.22c.2,0,.24,0-.11,0l-.22-.36.54-.53c.29-.28.14.7.46.52l.24-.14c.08-.05.09.03-.17-.34.91.14,1.54.92,2.96,1.28.14-.14.36-.45.48-.43l.53.11.41.09c.11.02-.08-.43-.12-.58l1.12-.3c.15-.04.35-.4.5-.39l.9.06c-.17-.51-.23-1.28.12-1.35.05,0,.34.35.3.37s.06-.02.18-.07c.03-.44.03-.52,0-.04l.98,1.02c.67-1.33-.38-1.89-1.11-2.5-.92-.77-1.77-1.44-2.78-2.18.04-.09.58-.09.74.04l1.66,1.38.03-.46c0-.06-.19-.07-.25-.06s.05-.28.1-.44l-3.02-1.99c-.39-.26-.81-.37-1.24-.5l-1.08-.82.31-.24s.19-.11.13-.12c-.07,0-.35-.12-.39-.06l-.25.39c-.05.08-.32,0-.31-.1,0-.12.08-.41.13-.53l.19-.43c.05-.11-.32-.28-.34-.17-.07.26-.19.8-.34.76-.2-.06-.45-.23-.69-.44,0,.02-.23.35-.2.32l-1.2-.61.11.91-.85-.49c-1.12-.65-.78-1.27-1.03-1.1l-.41.27c-.56-.32-1.16-.51-1.92-.3-.13-.22-.35-.63-.46-.9-.09-.35-.24-.58-.61-.92l1.44-1.95.64.02-.73-.4c.56-.23.51-1.64.86-1.32l.6.55.25-.65c.33.74.44,1.1,1,1.22.65.14,1.11.04,1.55-.53l.29.37c.05.06.4-.06.39.01l-.13.57c1.4.15,1.68-.44,2.58.18.49.34.94.2,1.42-.12l1.8.71c.05-.13.07-.46.18-.42l.61.24.1-.16s.3-.14.3-.08v.49c0,.25.7.18.93.31,3.22,1.91,2.42,2.06,4.61,3.62l.67.48.52-.15c.13-.04.5.39.49.55-.08,1.38,2.6.37,1.58,1.66l.4.91c.18.4.79.97,1.16,1.38l.69.38.9,1.5c.11.18.21.55.35.96.1.02-.09-.02-.25-.04l-.34-.25c-.08-.06-.26.14-.43.25-.26-.25-.61-.6-.84-.88l-.2-.25s-.06.03-.13.23c-.12.6.05.97.67,1.32l-.46.67c-.11-.39-.17-.69-.25-.89l-.36-.89c.2-.23,0,0-.12.14l-.22.27c-.11.14.22-.05.58.55.25.4-1.16.49-1.04,1.07.04.21.28.47.58.83l.68-.7.39.4-.61.52c-.31.26.84.81.89.71l.25-.51,1.12,1.38c.76.95,1.5,2.02,2.05,3.07l1.55,3c.04-1.07-.62-2.03-.96-3.11-.18-.58-.32-.88-.67-1.31l-1.06-1.35c-.1-.23.06-.93.38-.28,0,0,.19-.12.26-.17.06-.04.11.05.37.32-.11.29-.03.08.08-.22l-.43-.76-.79.44c-.05-.05-.26-.36-.19-.41l.43-.33c.34-.26.99.36,1.25.62.11.11.52.1.62.23l.37.51c.19.13,1.24,1.75,1.3,1.89l.6,1.33c-.18.19.03-.03.18-.18l.56.86c.12.18.34.58.44.77l.29,1.07.37,1.35c-.25.7.29,1.3-.04,1.39-.14.03-.43.06-.42.04.06-.27.28-.7.16-.76l-.84-.39c-.23.57.91.97.02,1.07-.22.03-.02.63.09.84l-.06.38c-.02.11.34.22.4.31l.55.91c.07.11.19.34.25.29l.53-.35c0-.4.03-.28.07.07l.04.46c0,.09.21,0,.23-.07,0-.26.34-.61.61-.55l-.2.64c-.05.15.53.71.52.73l.3-.29c.1-.1.28.5.18.6l-.42.43.45.66c.04.06.05.3.05.38s.15.02.49-.02c-.02-.1,0,.08.03.22-.23.35-.06,2.53.89,2.45,0-.11,0,.05-.02.2l-.02-.04ZM97.35,23.77l.47-.19c.06-.03-.1-.16-.16-.19s-.25-.08-.31-.05l-.41.19c-.07.03.08.17.15.2.04.02.22.06.26.04ZM70.74,29.67c.87-.1,1.46-.36,2.05-.93-.79.2-1.5.49-2.05.93ZM84.79,29.32c-1.01-.16-1.81.27-2.58.8.91-.21,1.68-.45,2.58-.8ZM75.73,34.06c2.69-1.13,5.23-2.07,7.95-2.95l1.71-.55c.13-.04.35-.25.44-.35,1.38-1.52-9.37,2.49-9.38,2.86l.89-.03c-.52.31-1.08.63-1.61,1.03h0ZM94.72,30.33l.4-.08c.06-.01.05-.18.04-.32l-1.97.29c.52.38,1,.21,1.52.1h.01ZM122.76,31.27s-.36-.39-.43-.27l-.31.51.74-.24ZM86.33,31.86c.15.01.41.04.38-.03l-.09-.3c-.02-.08-.16.07-.37.27-.34-.01-.27,0,.09.06h0ZM77.99,34.5c-.44.03-.62.1-.61,0l.05-.44c0-.06.32.17.37.15l1.9-.88c.77-.36,1.52-.33,2.2-1.04-1.23.1-4.51,1.42-5.34,1.95.29,0,.64-.08.64.04l-.03.67c0,.12.4.07.48-.04l.33-.42h0ZM84.23,32.5c-.17-.09-.38-.17-.54-.14-.13.03-.42.3-.42.38l.96-.24ZM91.3,33.53c.14-.42.12-1-.44-1.05l.44,1.05ZM131.81,32.46c-.09.1-.34.42-.24.44l.43.09c.09.02.06-.26.04-.35-.02-.06-.18-.22-.22-.17h0ZM84.77,33.44l-.31-.83-.23.91.53-.08h.01ZM83.09,32.87l-1.77.24-1.08.61s2.85-.85,2.85-.85ZM61.37,37.32l2.82-2.48c-.85-.05-1.13.92-2.39.75l1.59-1.45s-.02-.45-.08-.42l-.27.15-.28.16c-.06.04-.18-.22-.12-.27l.26-.21.33-.26c.07-.06-.13-.31-.19-.24-.93,1.08-.7.48-2.43,2.38l-1.87,2.06c-.89.99-1.98,1.72-2.2,3.27.84-.3,1.45-.78,2.05-1.53l.25.59,2.53-2.51h0ZM83.75,33.83l.1-.89-.39.34c-.08.07.11.34.29.56h0ZM133.99,34.04c-.55-.39-1.03-.63-1.57-.65.34.62,1.01,1.01,1.57.65ZM79.55,34.11c.28-.19.03-.19-.28-.18-.42.17-.78.32-1.22.61.5.02.91-.16,1.5-.43ZM137.28,35.6c-.61-.44-.89-.63-1.32-.85.24.66.81.87,1.32.85ZM72.71,35.3c-.85.15-1.49.46-2.16.87l-1.44.9c-.7.44-1.28.8-1.87,1.58.37-.1.73-.25,1.01-.44,1.98-1.37,2.91-1.68,4.47-2.92h0ZM78.25,35.39c-.93,0-1.62.29-2.11,1.01l2.11-1.01ZM138.12,36.44c-.09-.45-.3-.63-.65-.53l.65.53ZM138.05,37.11c-.44-.29-.77-.71-1.28-.67l1.1,1.06c.07.07.31.17.37.1s.17-.29.09-.33l-.28-.16ZM139.49,37.38c-.33-.36-.64-.65-.91-.81.03.66.55.92.91.81ZM127.74,116.62l-.82-1.17c.07-.47.57-1.25.78-1.71.3-.66.56-1.21,1.29-1.34v-.32c-.02-.1.33-.23.37-.15l.18.38.16-.41-.44-.2.28-.69s.29-.16.3-.14c0,.01.03.17.06.35.26,0,.5-.42.51-.79l1.94-1.34c.12-.08.45-.2.53-.11l.26.28.16-.6c.02-.08.22-.05.35-.08.14-.21.7-.66.8-.94.45-.88.32-2.74,1.14-2.6-.05-.47.04-1.04.16-1.43-.51-1.17.33.34.78-2.78l.18-1.25c.64-.17,1.19-.79,1.21-1.6.07-3.03.5-1.3.53-4.74l.04-4.09c0-.9.16-1.68.54-2.46.05-.37-.03-1.14.06-1.48l.66-2.44c.29-1.08.26-1.76.09-2.84-.09-.59.14-1.44-.06-2.15-.33-1.16-.39-2.29-.41-3.47l-.03-1.62c0-.19.11-.51.22-.7-.2-.15-.35-.47-.28-1.06l.34.63c.29-1.21-.67-.24-.66-1.92.31.06.46.14.52.06.04-.05.13-.16.22-.26h-.8l.26-.33c.05-.06-.11-.19-.21-.32l.48-.19c-.38-.14-.57-.22-.34-.13l.11-.53c.03-.12-.12-.19-.54-.51l1.14-1.03-1.03-.18c-.1-.57,1.06-.94.61-.84.52-.11-.89-.06-.87-.4l.03-.63c.28.13.53.41.74.73l-.07-.95.41.67.02-.94c-.29.29-.53.57-.74.54-.68-.11-.63-.96-.93-1.03l-.46-.11.49-.39c.07-.05-.14-.24-.22-.2l-.4.23-.15-.7c.08-.12.2-.52.08-.59l-.49-.29s-.26-.26-.2-.27l.45-.13c-.34-.36-.61-1.1-.74-1.59-.04-.14-.41-.47-.38-.6l.16-.55c.08-.21.24-.61.24-.6l.16.61c.02.09.41-.08.51-.13.02-.4.18-.73.55-1.23l.34.46c.11-.08.37-.37.32-.52l-.19-.6c-.05-.15.26-.51.18-.65l-.3-.47c.17-.03.34-.06.41.02l.36.47c-.05-.74,1.55-1.3,1.05-1.42l-.53-.13c0,.09.12.45.02.49l-.33.13-.37-.95c-.2.17-.38.33-.36.33,0,0,.13.15.27.33l-.97-.04.27-.73c.06-.16.47-.13.65-.13l1.06-.51c-1.23-.02-1.55-.64-1.72-.34l-.32.55-.26.44c-.06.1-.4,0-.44-.11l-.16-.48c-.06.02-.29.29-.36.21l-.35-.42-.86-1.04c-1.19-1.44-.05-1.69-.7-1.89-.1-.03-.22-.11-.24-.02l-.11.41-.11.41s-.19-.06-.2-.07c.08-.44.04-.76-.26-1.2-.24.43-.44.99-.56,1.51l.52.32-.11,1.04-.24-.62-.11.61c-.02.1-.22.13-.28.04l-.38-.56c.23-.28.18-.23-.16.11l-.56-.76c-.1-.14-.31-.29-.29-.4l.07-.38-.46-.03c.35.02-1.49-1.16-1.54-1.41l-.56-.4-1.45-1.4-1.79-1.58.37.04c.07,0,.13-.27.06-.27h-.38c-.1,0-.58,0-.54-.11l.2-.44c-.17.03-.45.15-.53.05l-.34-.48c-.07-.09-.51-.11-.55-.22l-.14-.39-1.4-.59c-.61-.26-1.42-.38-1.82-1l-.75.08-.11-1.54c-.31-.23,0,2.3-.35,1.24l-.19-.56c-.44.39-1.19-.13-1.54-.46h-.59c-.13,0-.27-.26-.38-.45-.09.21-.74.55-.87.31l-.41-.72c-.07-.12-.51.03-.65.07l-.24-.65-.16.92c-1.83-.68-2.21.09-3.27-.93-.68.11-1.34.05-1.99-.09l-1.02-.23c-.11.04-.37.1-.48.09l-.75-.1-1.47-.18-.14-.47c-.1.28-.51.74-.7.62-.18-.11-.45-.29-.61-.41-.02.07-.06.45-.15.4-.5-.29-.68.09-.76-.2l-.13-.47-.08.46c-.32-.1-.86-.06-1.29.03l-.23-.46s-.23.31-.29.31l-2.45.06c-.33,0-2.32-.39-2.99-.29l-2.02.29c-.33.05-5.38.43-5.54.48l-3.34,1.11-1.79.37.64-.62c-.37-.08-.67-.11-.73-.24l-.2-.41-.12.78-.43-.96c-.52.52-.98.89-1.69,1.1l.73-.68-1.02.29.21-.46s-.17-.09-.22-.06l-.24.18c-1.5,1.12-3.67,1.35-3.5,2.46l-.51-.29c-.09-.05-.39.11-.47.17l-2.96,2.08c-2.59,1.82-4.89,3.88-6.96,6.27-.41.47-.81.85-1.48,1.23.28-.89.76-1.38,1.34-2.11l2.12-2.62c.05-.06,0-.44,0-.52,0-.06-.15.15-.21.16l-.31.1c.38-1.42,2.16-2.53,2.21-3.22,0-.08-.35-.22-.41-.17l-.82.7-.65-.25c-.15-.06-.41.24-.57.39l-2.04,1.84c-.7.63-2.18,2.48-2.94,3.44-.26.33-.37.92-.57,1.22-.36.53-.89,1.49-1.12,2.26l-.71,2.39c-.94.88-.97,1.28-1.95,2.83-1.11,1.78-2.09,3.52-2.93,5.44l-.37.84-.3.79-1.35,3.31c-.51,1.25-1.39,4.21-1.74,5.76-.12.54.21,1.14-.67,1.39l.45.74-.78,2.51c-.51,1.64.16,1.11-.68,3.57s.93,2.34.2,3.5c.2.7.13,2.16.11,2.93,0,.17.29.52.27.69s-.17.47-.28.67c.29.68.33,1.43.33,2.26v1.64c.03,2.73,1.11,6.1,2.37,8.52l1.84,3.55c.12-.22.21-.49.34-.45.11.03.37.27.42.37.04.09.12.5.02.48l-.51-.06c.73,2.11,2,3.93,3.45,5.72.32.39.62,1.05.93,1.43l2.25,2.78c2.02,2.49,4.22,4.73,6.13,7.32.48.65,2.38,2.48,3.18,2.64l-1.05-1.16c-.63-.69-1.19-1.45-1.73-2.24.69.65,1.16,1.21,2,1.76-.25-.54-.49-.82-.83-1.26,1.22.51.55,1.19,2.04,1.43.44.07.82.29,1.32.49-1.34-1.5-2.9-2.67-4.35-4.08l-3.14-3.06c-.47-.45-1.04-.92-1.47-1.4l-3.31-3.69c.4-.16,1.11-.3,1.3-.07.17.21.29.65.41.98l1.45,1.26,1.09,1.17c.21,1.38.16.05,1.89,1.8.49.5.96.93,1.32,1.55.29.51,1.1.63,1.38.96.64.75,1.45,1.34,2.28,1.89l2.06,1.38c.51.34,1.11.93,1.61,1.37.81-.49,1.05.31,1.56.52l3.86,1.58c.27.11.71.53.99.64l2.61.97c.63.23,1.44.48,2.04.58,3.46.55.89.66,4.9.82,1.07.04,2,.29,2.95.73l1.56.03c.4,0,.85-.02,1.16.03l1.32.19c.94.14,1.95-.31,2.75-.27,2,.11,4.08.12,5.81-1.07.51.17,1.11-.12,1.52-.16l1.53-.12c.76-.06,1.47-.22,2.14-.41.25-.07.79-.06,1.02-.1,3.45-.66,2.21.28,5.37-1.2.56-.26,1.09-.55,1.62-.92l1.24-.87c.41-.29,1.01-.57,1.42-.96l1.61-1.53c.37-.36.79-1.18,1.06-1.63.09,0,.4.04.36-.03l-.09-.14c-.33-.53-.69.65-1.53.07-.41-.28-.41-.75-.49-1.22-.19-.12-.65-.52-.59-.74l1.44-.46c.09-.03.51.3.42.35l-.34.18.61.25-1.12.39,1.56.28c.02.3.03.86.21.89s.44-.03.59-.12c.12-.08.15-.51.13-.67l-.09-.55c-.02-.11.34-.27.35-.39l.1-.74c.67-.12,1.42-.26,1.82-.59.05-.83,1.04-1.28.82-1.73-.07-.15-.25-.43-.42-.67l-.07.04ZM71,39.42c.77-.24,1.04-.48,1.36-.91-.6.2-1.02.53-1.36.91ZM66.86,40.49c.82-.42,1.26-.75,1.8-1.34-.78.26-1.42.74-1.8,1.34ZM118.67,40.39l-.55-1.04-.14,1.18.69-.13h0ZM140.89,40.67l-.25-.63-.43.41s.02.26.09.25l.6-.04h-.01ZM62.1,43.48l1.81-1.57c-.48-.07-2.17.73-1.81,1.57ZM63.87,43.59l-.21.76c.12.23,3.94-3.81,1.96-2.55-.46.29-4.51,3.24-4.15,3.87l2.39-2.08h0ZM47.58,58.6c.86-1.31,1.68-2.68,2.51-4.12.67-1.15,1.38-2.17,2-3.4-1.94,1.8-3.6,4.85-4.51,7.52ZM142.17,52.72l-.9-.1c0,.35,0,.62.04.79.35-.15.56-.34.86-.69ZM140.84,53.28c-.35-.04-.54.13-.49.38.03.15.11.5.09.43l.39-.81h.01ZM151.46,54l.58-.48s-.21-.07-.26-.05l-.42.17.11.36h-.01ZM152.26,54.45c.08-.03.22-.22.14-.23l-.64-.07-.02.42c0,.11-.22.25-.42.43l.43.07c.23.04-.12-.35.5-.62h.01ZM152.88,56.77l-.15-.44c-.04-.1-.15-.41-.25-.35l-.47.26.86.53h0ZM138.23,57.51s.45.1.49-.02l.18-.56c.03-.09-.45-.13-.44-.03l.02.35c0,.06-.1.12-.25.27h0ZM138.47,59.51c-.02-.67-.05-.92-.17-1.33-.52.56-.26,1.14.17,1.33ZM49.05,104.01c-.12-1.73-.64-3.32-1.88-4.65.54,1.66,1.13,3.07,1.88,4.65ZM47.94,102.92c-.36-.97-.54-1.32-.85-1.94,0,.39.05.75.14,1.03.29.4.48.69.71.91ZM47.29,104.34c-.27-1.06-.63-2-1.31-2.84.34,1.01.71,1.9,1.31,2.84ZM157.85,107.25c.39-.49.52-1.32-.17-1.41-.41.56-.71,1.3-.78,1.99.38-.01.69-.26.94-.58h0ZM92.3,159.26c-.04-.17-.15-.47-.06-.5l.4-.13c.02-.08-.48-.29-.6-.17l-.47.45c-.17.16-.37.75-.25.96.4.06,1.04-.33.98-.61Z"/>
  <path d="M114.56,37.85c0-.07.34,0,.34.07v.35c-.01.07-.3.17-.31.1,0,0-.03-.52-.03-.52Z"/>
  <path d="M117.08,30.08v-.46c0-.1.37-.21.46-.15l1.26.69-1.01.37-1.04-.15c-.54-.08-1.1-.26-1.35-.6.55-.05.83-.3,1.19-.81l-1.56-.73.32-.34c.06-.07-.16-.37-.25-.39-1.22-.25.03-1.32-2.2-1.42-1.6-.07-2.93-.3-4.42-.72l-.03.52c0,.09-.28,0-.4-.02h-.31c-.07.01-.12-.24-.05-.26l.46-.12s-.15-.22-.23-.2c-.1.03-.37.2-.45.3-.66.82-2.27-1.07-2.16-.71l-.15-.52-.58.83c-.07.1-.39.21-.5.18-.14-.04-.07-.27-.04-.66l.43.35c.08-.23.14-.64.31-.72.19-.1.59-.19.94-.27l-.69-.3,1.16-.22.02-.47c0-.12.55,0,.5.1l-.21.53,1.24.08-.82-.6c2.79.42,2.11-.34,4.99.69,2.09.75.9-.59,2.64.15-.51.26-.65.33-.39.23l.57.25c.08.03.04-.27.05-.51l2.67.78-.72.26.63.25c.14.06.32-.42.35-.45.51.03,1.04.03,1.53-.01-.24.89.59,1.38,1.4,1.73l-.61.62,1.54.26c-2.12.44-1.46,1.58-1.73,1.63l-.52.11,1.09.84-2.5-.61-.5-.39c-.13-.1-.49.04-.52.2l-.11.51c-.02.09.08.15.28.32l.02.03ZM111.77,24.3l-1.46-.23c.42.48.99.67,1.46.23Z"/>
  <path d="M146.34,34.46c.4.82,1.45,2.75,2.17,2.81.16.32.42,1.13.77,1.25l.53.19c.08.03-.11.17-.21.27,1.95,1.42.63,1.72,2.57,3.75-1.18.57-.71-1.75-2.52-2.19l-.13-.99-.26.67-.34-.73c-.06-.13-.43-.1-.61-.15-.25-.52-.62-1.35-1.07-1.66-1.01-.69-1.49-1.63-2.22-2.55-.52-.65-1.3-1.22-1.91-1.82-.88-.88-1.71-1.74-2.68-2.51-2.1-1.65-5.64-4.23-7.98-5.31s-1.21-.95-3.24-1.55c-.81-.24-2.2-1.05-2.03-1.67l.34.36c.07.07.22-.12.32-.18l.97.3c.15.05.36.39.54.55.14.12.34-.19.53-.46l.05.87,1.13-.59.77.7.41.89c.29.64.67-.26,1.95,1.11.73.21,2.16.17,2.07,1.17l.6-.07c.12-.01.18.45.22.51.5.02.91.24,1.25.6l1.25,1.33,1.54-.03c-.03.55-.04,1.02.04,1.36l.68-.34c.13-.07.27.27.4.47.81,1.27,1.07.86,1.86,2.22.49.85,1.18,1.52,2.28,1.43h-.04Z"/>
  <path d="M127.76,38.73c.07.04.27.08.34.09.09.02.23.16.18.22l-.37.43c-.3-.14-.84-.56-1.24-.91-.5.39-1.17.79-1.89.88l.34-.36c.08-.08-.1-.43-.22-.44-.24-.02-.6-.03-.74-.18-.21-.23.02-.71.35-.86l-.38-.68-.38.82c-.23.49-.45.91-.98.94l.03.8c-.96-.55-.79-1.53-.69-2.45-.42.02-.33.31-.54.9l-.63-.91-.18.19s-.25.06-.23,0c.03-.08.17-.39.23-.42.61-.25,1.84-.83,2.05-1.45l.42-1.23-.83.2c.24-.4.6-.65.82-.59l.32,1.58.88-.56-.16-.39c-.03-.08.13-.31.21-.26s.25.23.24.32l-.09.81-.73.34-.23,1.3.56-.47.11.49c.02.09.13.16.2.12.13-.06.48-.22.37-.17l-.49-.16c-.06-.02,0-.22.06-.24l.33-.06c.21,0,.46.09.8.32l.31-.6c.11.07.37.27.32.39l-.27.61,1.48.51-.63.49.96.63h0ZM122.55,36.54c.45-.11.68-.46.53-.88l-.53.88ZM123.38,37.31c.07-.04-.05-.36-.12-.32l-.27.16c-.16.09-.57.41-.59.59s.02.55.05.59c.26-.43.66-.86.94-1.02h-.01ZM125.18,38.02l-.27.43c-.05.08.33.07.47.09.23.04-.19-.52-.2-.52Z"/>
  <path d="M162.89,70.3c-.26.11.39,4.7-.24,5.52-1.06-.92-.32-2.75-.64-5.12l-.12-.88c-.08-.58-.1-1.12,0-1.62l.19-.98.25.44c.16.28.15-.34.34-.14.57.59.16,1.3.6,2.61,0,0-.38.17-.38.17Z"/>
  <path d="M133.04,43.05c-.73-1.13-1.54-1.23-1.58-1.96l.87.73c.11.09.62,0,.67-.14.07-.16.1-.3.22-.75l.75.42.45-.66c.09.02.46.22.4.3l-.27.39c-.35.5-.66.62-1.51.57l.3.47-.3.64h0Z"/>
  <path d="M84.47,162.57c-.18.14-.62.22-1.11.37l.3-.62c.07-.27.28-.7.52-.91.18-.16,1.76-.21,1.86-.02l-1.57,1.18h0Z"/>
  <path d="M78.75,20.94l-1.8.1c.23-.71.71-1.25,1.07-1.46l1.64.92c-.2.14-.68.4-.91.43h0Z"/>
  <path d="M125.37,22.08c-.02.55-1.3-.73-2.04-.49l-.77-.7-.6.27c-.15.07-.54-.2-.63-.29l1-.14c1.99-.28,1.87.79,2.58.71.27.01.49-.02.49.1l-.02.55h-.01Z"/>
  <path d="M69.38,23.55l.81-.95,1.07-.07c.2-.09.3.68.1.88-.43.42-1.09.33-1.97.13h0Z"/>
  <path d="M61.43,153.17l-1.34.74c-.23-.2-.56-.56-.55-.82,0-.22.51-.53.73-.52.32,0,.59.13,1.15.6h0Z"/>
  <path d="M66.47,25.52c-.34-.74.41-1.24,1-1.51l.86-1.02c.25.81.06,1.79-.74,1.82-.16,0-.62-.08-.7.04,0,0-.42.67-.42.67Z"/>
  <path d="M96.57,19.49l-.34.52c-.08.13-.63.08-.6-.07l.18-.88,2.92-.05c-.5.68-1.3.85-2.15.48h-.01Z"/>
  <path d="M96.17,163.12c-.39-.08-.75-.17-.92-.09-.34.18-.71,1.25-.92,1.03l-.42-.42c-.12-.12.33-.41.5-.48l.91-.41c.18-.08.55-.11.95-.16l-.11.53h0Z"/>
  <path d="M153.19,44.43l.54-.36c.1-.06.2.37.22.52s-.12.1-.48.2c-.4.09-.81-.15-.99-.57-.16-.38.03-.93.37-1.22.21.16.57.47.52.65l-.18.78Z"/>
  <path d="M110.64,167.65l-1.01-.78c-.08-.06-.41-.18-.35-.26l.31-.42c.12-.15.56-.3.7-.16s.09.56.06.82l.28.8h.01Z"/>
  <path d="M31.15,100.22c-.04.2-.58.27-.82.16-.21-.09-.25-.49-.13-.88.07-.22.51-.32.74-.22.19.08.29.53.22.94h-.01Z"/>
  <path d="M28.11,99.77c-.48.11-.94-.64-.7-1.07.12-.21.66-.07.82.09.21.2.15.92-.12.98Z"/>
  <path d="M96.01,161.73l-.64-.53.85-.38,1.28-.09c-.51.29-.98.6-1.48.99h0Z"/>
  <path d="M62.91,153.37l-.75-.83c.23-.12.74.04,1.07.28l.5.36c.12.09-.21.43-.35.47s-.33-.13-.47-.28Z"/>
  <path d="M163.5,78.9c.33.12.07,1.03-.18,1.19-.24-.19-.66-.44-.67-.65v-.86l.84.32h0Z"/>
  <path d="M116.5,21.52c-.36.74-1.38-.41-2.9-.34.07-.24.17-.45.27-.43l.52.14,2.12.62h0Z"/>
  <path d="M72.39,20.11c-.4.04-.64.11-.97.3-.29.09-.6-1-.13-1.08.39-.06,1,.58,1.1.77h0Z"/>
  <path d="M161.65,71.86c.04.15.08.57-.02.67-.12.12-.59.1-.61-.03l-.02-1.36c0-.08.45-.08.48.04l.18.68h0Z"/>
  <path d="M100.33,166.95c-.31-.05-.62-.22-.6-.36s.25-.44.39-.48c.29-.08.67,0,.67.18,0,.26-.24.7-.46.66Z"/>
  <path d="M106.45,19.85c-.88.15-1.71.11-2.6-.16.89-.42,1.75-.41,2.6.16Z"/>
  <path d="M102.66,24.51l-.29-.4c-.06-.08-.22.12-.33.18l-.11-.51c-.02-.09.12-.25.21-.21l.38.16.34-.24c.09-.06.32.14.49.21l-.68.81h0Z"/>
  <path d="M28.66,106.78c-.18-.04-.53-.2-.7-.28-.19-.09-.02-.84.17-.75l.66.31c.17.08.05.76-.13.72Z"/>
  <path d="M29.97,105.92c-.39-.35-.55-.6-.72-1.11.28,0,.66.07.79.19s.08.51-.07.91h0Z"/>
  <path d="M112.4,23.42l-2.29-.4c-.51-.09-1-.21-1.53-.39,1.31-.07,2.6.27,3.81.79h.01Z"/>
  <path d="M83.2,161.35l-1.45.79c.21-.38.73-.94,1.08-1.06.09-.03.43.32.37.27Z"/>
  <path d="M117.19,165.08c-.03.14-.51.13-.62.03s-.19-.46-.08-.57c.09-.09.42-.11.52-.04s.21.44.18.58Z"/>
  <path d="M43.93,136.78l-1.03.11.92-.79.27.21c.07.05-.08.47-.16.48h0Z"/>
  <path d="M130.2,28.91c-.64.09-1.48-.25-1.68-1.1l1.68,1.1Z"/>
  <path d="M70.78,157.12l1.11-.4c.08.13,0,.48-.17.67-.12.13-.38.03-.94-.27Z"/>
  <path d="M161.81,63.9l-.19.3c-.04.06-.12.12-.18.17-.08.07-.15-.51-.06-.54.27-.09.76-.28,1.09-.4.05.15-.09.68-.22.71-.16.04-.29-.09-.44-.23h0Z"/>
  <path d="M28.06,90.34c.09-.08.5.06.47.17-.04.15-.16.48-.24.63-.07.13-.45-.17-.49-.32s.12-.36.26-.48Z"/>
  <path d="M111.64,161.44c.09-.05.48.03.46.13-.03.12-.07.39-.17.37l-.51-.1c-.1-.02.1-.33.22-.4Z"/>
  <path d="M41.53,45.39c.2-.04-.23.87-.36.76l-.31-.25c-.08-.06.1-.4.2-.42l.46-.1h.01Z"/>
  <path d="M68.02,30.36c-.33.33-.74.61-1.31.83.22-.49.54-.86,1.31-.83Z"/>
  <path d="M91.54,29.44c-.56.24-1.18.44-1.92.11.66-.11,1.12-.14,1.92-.11Z"/>
  <path d="M29.31,93.97l-.47-.14c-.14-.04-.05-.57.09-.55.12.02.34.11.41.18s.07.53-.03.5h0Z"/>
  <path d="M162.77,82.75c0-.68.05-1.32.19-2.1.12.67.1,1.37-.19,2.1Z"/>
  <path d="M165.63,87.21c-.02-.36.07-.59,0-.63l-.49-.24,1.09-.27-.58,1.14h0Z"/>
  <path d="M133.28,40.28l-.6.96c-.22-.31,0-.7.22-1l.2-.26s.21.26.18.31h0Z"/>
  <path d="M80.77,19.91c.23-.06.11.98-.07.86l-.26-.19c-.1-.07-.28-.52-.16-.54l.49-.12h0Z"/>
  <path d="M114.06,27.6l.02-.46c0-.12-.38-.15-.49-.2l-.31-.14c-.06-.03,0-.29.07-.26l.29.14.69.22c.17.05-.16.72-.26.7h-.01Z"/>
  <path d="M81.47,162.27l-.44.29c-.08.05-.14-.22-.25-.55.06-.02.53.16.69.25h0Z"/>
  <path d="M90.19,161.83c.1.4-.63.35-.75,0,.12-.09.67-.12.75,0Z"/>
  <path d="M155.25,56.14l-.17.52-.49-1.03c.36.04.43.05.48.06.08.02.1.2.18.46h0Z"/>
  <path d="M89.32,30.97l-.33.14c-.07.03-.06-.01-.18-.43l1.24-.13c-.32.21-.48.3-.74.41h.01Z"/>
  <path d="M13.04,138.64c.03-.06.33.03.31.09l-.14.36c-.03.09-.36.02-.32-.07l.15-.38h0Z"/>
  <path d="M58.19,153c.07-.04.41-.07.39.02l-.06.31c-.02.08-.32,0-.42,0-.11,0,0-.27.09-.33Z"/>
  <path d="M111.23,20.25c-.21.23-.39.41-.48.34-.11-.09-.3-.28-.49-.48.26-.04.58.02.97.14Z"/>
  <path d="M163.32,76.8c-.16-.15-.4-.34-.32-.44l.48-.61-.16,1.05h0Z"/>
  <path d="M40.56,132.88c.07-.05.46.09.41.16l-.2.29c-.05.07-.22,0-.3-.04s0-.36.08-.41h0Z"/>
  <path d="M107.35,26.51l-1-.07c.39-.55.82-.36,1,.07Z"/>
  <path d="M160.08,61.69l-.2-.74c-.03-.11-.24-.15-.48-.26.08-.05.72-.14.71.05l-.03.95h0Z"/>
  <path d="M164.63,92.58c.04-.07.43-.28.45-.2l.11.46c.02.08-.25.13-.32.16-.12.04-.3-.31-.23-.42h0Z"/>
  <path d="M103.42,19.59c-.53.19-1.06.22-1.28-.25l1.28.25Z"/>
  <path d="M162.69,77.51l-.25-1.1c.47.21.46.72.25,1.1Z"/>
  <path d="M91.74,30.2l.44-.15c.1-.03.08.29.06.43-.01.11-.19.13-.29.09s-.31-.34-.21-.37Z"/>
  <path d="M154.63,54.41c-.08.03-.48.11-.45,0,.04-.12.15-.36.24-.49.33-.21.31-.07.21.48h0Z"/>
  <path d="M133.59,40.43c0-.07.35-.08.37-.02l.11.4c.02.07-.23.12-.3.12-.11,0-.2-.38-.19-.5h.01Z"/>
  <path d="M160.9,60.82l.39-1.11c.16.34.22.99-.39,1.11Z"/>
  <path d="M37.04,128.02s.25,0,.24.05l-.08.32c-.02.08-.25-.03-.32-.07s.09-.28.16-.31h0Z"/>
  <path d="M104.79,23.83c-.08.26-.66.54-.9.11.09-.02.36-.05.9-.11Z"/>
  <path d="M96.49,30.43c.22-.09.6-.11.55,0l-.15.37c-.08.2-.63-.28-.4-.37Z"/>
  <path d="M121.85,36.01l-.48-.25c-.08-.04.22-.23.41-.4,0-.08.1.15.1.24s-.03.43-.03.4h0Z"/>
  <path d="M49.77,168.07s.23-.02.25.03c.02.08.03.31-.04.3l-.34-.06c-.08,0,.07-.24.14-.27h0Z"/>
  <path d="M110.04,19.93c-.31.38-.67.19-1.08-.02l1.08.02Z"/>
  <path d="M124.47,41.41c-.36-.04-.58-.08-.6-.06s.16-.19.28-.32c.36.05.58.25.32.39h0Z"/>
  <path d="M112.63,26.58c-.02-.06.33-.14.35-.07l.13.44c.02.07-.27.19-.29.12,0,0-.19-.49-.19-.49Z"/>
  <path d="M73.18,22.14l-.05-.32.53-.11c.08-.02.11.34.03.36l-.51.08h0Z"/>
  <path d="M127.61,28.13l.26-.91c.22.32.19.76-.26.91Z"/>
  <path d="M121.56,33c0-.07.34,0,.34.06v.35c-.01.07-.3.17-.31.1l-.03-.52h0Z"/>
  <path d="M163.43,75.03c-.02-.06.31-.04.37-.05.09-.02.07.27,0,.33l-.19.19c-.07.07-.14-.36-.19-.48h.01Z"/>
  <path d="M64.95,151.18l-.87.09c.09-.13.16-.25.19-.3.04-.08.22.04.68.21Z"/>
  <path d="M49.49,142.92c-.27.34-.33.46-.38.42-.07-.06-.33-.21-.26-.26l.44-.26c.13.06.29.14.19.09h.01Z"/>
  <path d="M161.69,61.49l-.46-.45s.16-.08.34-.18c.09-.05.17.12.16.21-.02.16-.05.43-.05.41h.01Z"/>
  <path d="M97.05,32.45c-.19-.22-.05-.57.4-.77l-.4.77Z"/>
  <path d="M112.65,23.42s.23-.04.27-.01c.06.04.16.18.1.23-.04.03-.16.15-.21.19-.06.05-.14-.31-.17-.41h.01Z"/>
  <path d="M103.21,125.43l-1.37.59c-.4.17-1.27.12-1.77.15l-.82-.47c-.92-.23-1.85-.5-2.46-1.21-1.96-2.27-2.24-4.59-.03-6.87.67-.7,1.64-1.29,2.39-1.92,1.92.33,1.99-1.09,4.47,1.03.21.18.38.87.55,1.11,2.11,3.03.45,3.86,2,4.19.07.58-.52,1.3-1.09,1.65l-.56,1.19-1.31.55h0Z"/>
  <path d="M57.17,110.73c-.8-.96-1.41-1.83-1.99-2.8,1.25.53,1.99,1.53,1.99,2.8Z"/>
  <path d="M58.35,111.67l.59,1.21c-.47-.48-.93-1.04-1.45-1.72l.63-.17c.14-.04.24.38.24.68h-.01Z"/>
  <path d="M136.21,56.29l-1.13.16c.22-.7.67-.73,1.13-.16Z"/>
  <path d="M134.11,52.98l.34.76c-.33-.05-.55-.33-.56-.57-.02-.48.26-.56.74-.6.24,0,.56.16.27.24-.21.21-.31.37-.38.34l-.4-.18h-.01Z"/>
  <path d="M66.7,49.66c-.17-.42.34-.79.77-.95-.2.39-.34.59-.77.95Z"/>
  <path d="M133.83,51.73c0-.09.41-.11.44-.02l.12.47c.03.12-.48.18-.49.06l-.06-.51h0Z"/>
  <path d="M137.25,53.85c-.37.61-.82.39-1-.06l1,.06Z"/>
  <path d="M136.43,57.05c-.11.05-.21.09-.27.12-.08.04-.32-.19-.25-.24l.46-.33c-.16-.15-.03-.02.05.05l.24.22c.08.07.08.06-.24.18h0Z"/>
  <path d="M132.93,53.02c.04.16-.06-.26-.09-.41-.02-.11.22-.15.54-.14l-.45.56h0Z"/>
  <path d="M66.97,122.3c-.03-.08.54-.15.51-.07l-.19.42c-.05.11-.24-.16-.32-.35Z"/>
  <path d="M135.44,57.76c-.07-.32-.07-.69,0-1.11.07.32.07.69,0,1.11Z"/>
  <path d="M58.25,38.98c.58-.76,1.24-1.34,2.05-1.82-.51.82-1.22,1.41-2.05,1.82Z"/>
</svg>