<?xml version="1.0" encoding="UTF-8"?>
<svg id="Layer_1" xmlns="http://www.w3.org/2000/svg" version="1.1" viewBox="0 0 277.36 82.74">
  <!-- Generator: Adobe Illustrator 30.2.1, SVG Export Plug-In . SVG Version: 2.1.1 Build 1)  -->
  <defs>
    <style>
      .st0 {
        fill: #231f20;
      }
    </style>
  </defs>
  <path class="st0" d="M8.58,29.04c0-.68.61-1.3,1.29-1.3h3.88c.68,0,1.3.61,1.3,1.3v24.67c0,.68-.61,1.29-1.3,1.29h-3.88c-.68,0-1.29-.61-1.29-1.29v-24.67Z"/>
  <path class="st0" d="M22.56,29.04c0-.68.61-1.3,1.29-1.3h1.98c.54,0,.95.34,1.09.82l.82,2.32c.48-.55,4.09-3.82,9.54-3.82,8.32,0,11.38,5.86,11.38,12.95v13.7c0,.68-.61,1.29-1.29,1.29h-3.89c-.75,0-1.29-.61-1.29-1.29v-13.97c0-4.36-2.11-6.75-5.66-6.75-4.29,0-7.22,3.14-7.57,4.09v16.63c0,.89-.41,1.29-1.57,1.29h-3.54c-.68,0-1.29-.61-1.29-1.29v-24.67Z"/>
  <path class="st0" d="M57.39,33.4h-2.86c-.75,0-1.29-.61-1.29-1.3v-3.07c0-.75.54-1.3,1.29-1.3h2.86v-7.57c0-.68.61-1.3,1.29-1.3l3.88-.07c.68,0,1.23.61,1.23,1.29v7.63h6.95c.75,0,1.29.55,1.29,1.3v3.07c0,.68-.55,1.3-1.29,1.3h-6.95v13.5c0,2.32.89,2.73,2.18,2.73,1.43,0,3.34-.82,4.16-1.23.89-.41,1.29,0,1.57.61l1.23,3c.34.75.07,1.29-.61,1.64-.68.41-4.7,2.04-7.97,2.04-5.38,0-6.95-3.27-6.95-8.11v-14.18Z"/>
  <path class="st0" d="M89.5,27.06c7.09,0,12.54,5.32,12.54,12.61,0,.48-.07,1.36-.14,1.84-.07.68-.61,1.16-1.23,1.16h-18.54c.2,3.68,3.41,7.29,7.84,7.29,2.45,0,4.7-1.09,6.07-1.98.82-.48,1.29-.75,1.84-.07l1.91,2.59c.48.55.68,1.09-.14,1.77-1.98,1.7-5.52,3.41-10.09,3.41-8.25,0-13.7-6.48-13.7-14.31s5.45-14.31,13.63-14.31ZM95.7,38.37c-.21-3.27-2.93-6.07-6.27-6.07-3.68,0-6.54,2.66-6.95,6.07h13.22Z"/>
  <path class="st0" d="M107.22,29.04c0-.68.61-1.3,1.29-1.3h1.98c.48,0,1.02.41,1.16.95l.75,2.32c.48-.68,3-3.95,7.98-3.95,2.59,0,5.73.68,4.98,2.52l-1.64,3.34c-.34.75-1.02.89-1.64.61-.41-.2-1.43-.48-2.32-.48-3.95,0-5.86,2.86-6.13,3.34v17.31c0,1.16-.75,1.29-1.84,1.29h-3.27c-.68,0-1.29-.61-1.29-1.29v-24.67Z"/>
  <path class="st0" d="M135.3,74.16c0,.75-.48,1.29-1.43,1.29h-3.82c-.68,0-1.29-.61-1.29-1.29V29.04c0-.68.61-1.3,1.29-1.3h2.04c.54,0,.89.27,1.16.89l.68,1.77c.48-.48,3.27-3.34,8.32-3.34,7.5,0,13.02,6.54,13.02,14.38s-5.86,14.25-13.29,14.25c-3.54,0-6.2-1.57-6.68-1.84v20.31ZM141.17,49.82c4.5,0,7.77-3.75,7.77-8.38s-2.86-8.45-7.5-8.45c-3.95,0-6,3.14-6.27,3.95v10.91s2.39,1.98,6,1.98Z"/>
  <path class="st0" d="M160.8,8.59c0-.68.61-1.3,1.29-1.3h3.95c.68,0,1.29.61,1.29,1.3v21.4c.68-.48,3.82-2.93,8.18-2.93,7.7,0,11.38,5.52,11.38,12.95v13.7c0,.68-.61,1.29-1.29,1.29h-3.82c-.75,0-1.29-.61-1.29-1.29v-13.84c0-4.43-2.25-6.88-5.79-6.88-4.16,0-7.02,3.14-7.36,4.29v16.43c0,.75-.48,1.29-1.36,1.29h-3.88c-.68,0-1.29-.61-1.29-1.29V8.59Z"/>
  <path class="st0" d="M202.99,37.76c2.86,0,5.38.82,5.38.82.07-4.29-.75-6-4.23-6-3.14,0-6.2.82-7.63,1.23-.82.2-1.29-.34-1.5-1.09l-.54-2.52c-.21-.89.27-1.36.89-1.57.48-.2,4.36-1.57,9.41-1.57,8.72,0,9.54,5.32,9.54,12.13v14.52c0,.68-.61,1.29-1.29,1.29h-1.91c-.61,0-.89-.27-1.16-.95l-.68-1.84c-1.5,1.43-4.16,3.48-8.38,3.48-5.11,0-8.79-3.48-8.79-9.13,0-4.98,3.95-8.79,10.91-8.79ZM202.18,50.85c2.73,0,5.32-2.04,6.13-3.41v-4.36c-.41-.27-2.32-1.09-4.77-1.09-3.27,0-5.52,1.7-5.52,4.5,0,2.45,1.64,4.36,4.16,4.36Z"/>
  <path class="st0" d="M219.9,51.46l1.43-2.66c.27-.55,1.02-.75,1.7-.34,0,0,3,1.77,6.34,1.77,2.04,0,3.34-.82,3.34-2.32,0-1.84-1.5-2.73-5.25-4.43-4.23-1.84-7.77-4.43-7.77-8.93,0-3.41,2.79-7.5,9.34-7.5,3.82,0,6.68,1.23,8.04,2.11.61.41.96,1.29.55,1.98l-1.23,2.32c-.34.61-1.23.82-1.77.55,0,0-3-1.43-5.59-1.43-2.32,0-3.07,1.02-3.07,2.04,0,1.77,1.7,2.52,4.36,3.68,4.98,2.18,9.07,4.29,9.07,9.41,0,4.23-4.02,7.98-10.09,7.98-4.57,0-7.57-1.64-9-2.79-.41-.27-.68-.89-.41-1.43Z"/>
  <path class="st0" d="M256.23,27.06c7.09,0,12.54,5.32,12.54,12.61,0,.48-.07,1.36-.14,1.84-.07.68-.61,1.16-1.23,1.16h-18.54c.2,3.68,3.41,7.29,7.84,7.29,2.45,0,4.7-1.09,6.07-1.98.82-.48,1.29-.75,1.84-.07l1.91,2.59c.48.55.68,1.09-.14,1.77-1.98,1.7-5.52,3.41-10.09,3.41-8.25,0-13.7-6.48-13.7-14.31s5.45-14.31,13.63-14.31ZM262.43,38.37c-.21-3.27-2.93-6.07-6.27-6.07-3.68,0-6.54,2.66-6.95,6.07h13.22Z"/>
</svg>